<svg xmlns="http://www.w3.org/2000/svg" viewBox="0 -11.10 161.23 69.20" fill="none">
  <title>Itaja</title>
  <g fill="#0A1F1B">
    <rect x="6" y="16" width="7" height="26" rx="2"/><rect x="35" y="16" width="7" height="26" rx="2"/><path d="M9.5 16 L9.5 10 Q24 5 38.5 10 L38.5 16 L35 16 L35 12.6 Q24 8.4 13 12.6 L13 16 Z"/>
  </g>
  <g fill="#0A1F1B">
    <path transform="translate(60.00 41.98) scale(0.056000 -0.056000)" d="M36 0V528H198V0ZM116 566Q70 566 45.5 585.5Q21 605 21 642Q21 680 45.5 699.5Q70 719 116 719Q163 719 187.5 699.0Q212 679 212 642Q212 606 187.5 586.0Q163 566 116 566Z"/>
    <path transform="translate(70.86 41.98) scale(0.056000 -0.056000)" d="M247 -12Q154 -12 108.5 35.5Q63 83 63 183V402H5V504H8Q70 512 96.0 545.5Q122 579 128 647V649H223V528H344V398H223V198Q223 160 241.5 144.0Q260 128 287 128Q301 128 316.0 132.0Q331 136 344 143V2Q313 -7 289.0 -9.5Q265 -12 247 -12Z"/>
    <path transform="translate(89.23 41.98) scale(0.056000 -0.056000)" d="M175 -14Q135 -14 99.0 0.0Q63 14 40.0 45.5Q17 77 17 130Q17 179 36.0 209.5Q55 240 87.0 258.5Q119 277 157.0 286.5Q195 296 232 303Q284 313 310.0 319.0Q336 325 345.5 333.0Q355 341 355 355Q355 384 333.5 399.0Q312 414 277 414Q255 414 233.0 406.0Q211 398 197.0 377.5Q183 357 184 319L40 329Q38 392 59.0 433.5Q80 475 116.5 498.5Q153 522 196.5 532.0Q240 542 283 542Q362 542 413.0 512.5Q464 483 488.5 427.5Q513 372 513 293V199Q513 166 513.0 132.5Q513 99 513.0 66.0Q513 33 513 0H373Q373 36 373.0 73.0Q373 110 373 151H367Q363 106 337.5 68.5Q312 31 270.5 8.5Q229 -14 175 -14ZM242 104Q259 104 278.5 110.5Q298 117 315.5 132.0Q333 147 344.0 173.5Q355 200 355 239V263L382 266Q374 253 355.5 245.0Q337 237 314.0 232.5Q291 228 267.5 223.5Q244 219 224.0 211.5Q204 204 191.5 191.5Q179 179 179 157Q179 131 197.5 117.5Q216 104 242 104Z"/>
    <path transform="translate(117.40 41.98) scale(0.056000 -0.056000)" d="M42 -164Q29 -164 15.5 -162.5Q2 -161 -12 -159L-25 -22Q14 -24 30.0 -10.5Q46 3 46 42V528H208V33Q208 -21 195.5 -58.5Q183 -96 160.0 -119.5Q137 -143 107.0 -153.5Q77 -164 42 -164ZM126 566Q80 566 55.5 585.5Q31 605 31 642Q31 680 55.5 699.5Q80 719 126 719Q173 719 197.5 699.0Q222 679 222 642Q222 606 197.5 586.0Q173 566 126 566Z"/>
    <path transform="translate(128.82 41.98) scale(0.056000 -0.056000)" d="M175 -14Q135 -14 99.0 0.0Q63 14 40.0 45.5Q17 77 17 130Q17 179 36.0 209.5Q55 240 87.0 258.5Q119 277 157.0 286.5Q195 296 232 303Q284 313 310.0 319.0Q336 325 345.5 333.0Q355 341 355 355Q355 384 333.5 399.0Q312 414 277 414Q255 414 233.0 406.0Q211 398 197.0 377.5Q183 357 184 319L40 329Q38 392 59.0 433.5Q80 475 116.5 498.5Q153 522 196.5 532.0Q240 542 283 542Q362 542 413.0 512.5Q464 483 488.5 427.5Q513 372 513 293V199Q513 166 513.0 132.5Q513 99 513.0 66.0Q513 33 513 0H373Q373 36 373.0 73.0Q373 110 373 151H367Q363 106 337.5 68.5Q312 31 270.5 8.5Q229 -14 175 -14ZM242 104Q259 104 278.5 110.5Q298 117 315.5 132.0Q333 147 344.0 173.5Q355 200 355 239V263L382 266Q374 253 355.5 245.0Q337 237 314.0 232.5Q291 228 267.5 223.5Q244 219 224.0 211.5Q204 204 191.5 191.5Q179 179 179 157Q179 131 197.5 117.5Q216 104 242 104Z"/>
  </g>
</svg>
